<svg xmlns="http://www.w3.org/2000/svg" width="50" height="40.001" viewBox="0 0 50 40.001"><path d="M16.24,27.5c8.977,0,16.251-6.156,16.251-13.75S25.217,0,16.24,0-.01,6.156-.01,13.75a12.37,12.37,0,0,0,3.094,8.078,7.252,7.252,0,0,1-1.109,1.93A8.96,8.96,0,0,1,.935,24.876C.795,25,.677,25.1.6,25.165a.69.69,0,0,1-.086.063L.5,25.243h0a1.246,1.246,0,0,0-.445,1.391A1.268,1.268,0,0,0,1.24,27.5a14.118,14.118,0,0,0,4.852-.977,17.369,17.369,0,0,0,1.977-.891A18.411,18.411,0,0,0,16.24,27.5ZM34.991,13.75c0,8.774-7.742,15.383-16.915,16.172C19.975,35.736,26.272,40,33.741,40a18.47,18.47,0,0,0,8.18-1.867,17.225,17.225,0,0,0,1.969.891A14.118,14.118,0,0,0,48.742,40a1.253,1.253,0,0,0,.734-2.266h0l-.016-.016c-.016-.016-.047-.031-.086-.062-.078-.062-.2-.156-.336-.289A8.96,8.96,0,0,1,48,36.251a7.377,7.377,0,0,1-1.109-1.93,12.339,12.339,0,0,0,3.094-8.078c0-7.25-6.633-13.2-15.047-13.711.031.4.047.8.047,1.211Z" transform="translate(0.011)" fill="#e9572a"/></svg>