<svg xmlns="http://www.w3.org/2000/svg" width="46" height="36.8" viewBox="0 0 46 36.8"><path d="M8.05,0A3.451,3.451,0,0,0,4.6,3.45V6.9H1.15a1.15,1.15,0,1,0,0,2.3h18.4a1.15,1.15,0,0,1,0,2.3H3.45a1.15,1.15,0,0,0,0,2.3h13.8a1.15,1.15,0,1,1,0,2.3H1.15a1.15,1.15,0,1,0,0,2.3h13.8a1.15,1.15,0,1,1,0,2.3H4.6v9.2a6.9,6.9,0,1,0,13.8,0h9.2a6.9,6.9,0,1,0,13.8,0h2.3a2.3,2.3,0,0,0,0-4.6V17.056A4.6,4.6,0,0,0,42.356,13.8L36.8,8.244A4.6,4.6,0,0,0,33.544,6.9H29.9V3.45A3.451,3.451,0,0,0,26.45,0ZM39.1,17.056V18.4H29.9V11.5h3.644ZM11.5,33.35a3.45,3.45,0,1,1,3.45-3.45A3.451,3.451,0,0,1,11.5,33.35ZM37.95,29.9a3.45,3.45,0,1,1-3.45-3.45A3.451,3.451,0,0,1,37.95,29.9Z" fill="#e9572a"/></svg>