<svg xmlns="http://www.w3.org/2000/svg" width="40" height="40" viewBox="0 0 40 40"><path d="M27.5,25A12.5,12.5,0,0,0,40,12.5a12.626,12.626,0,0,0-.484-3.453,1.117,1.117,0,0,0-1.9-.414l-6,6a1.255,1.255,0,0,1-.883.367H26.25A1.254,1.254,0,0,1,25,13.75V9.266a1.255,1.255,0,0,1,.367-.883l6-6a1.12,1.12,0,0,0-.414-1.9A12.627,12.627,0,0,0,27.5,0,12.513,12.513,0,0,0,15.742,16.758L1.555,30.945a5.3,5.3,0,1,0,7.5,7.5L23.242,24.258A12.414,12.414,0,0,0,27.5,25ZM6.25,35.625A1.875,1.875,0,1,1,8.125,33.75,1.871,1.871,0,0,1,6.25,35.625Z" fill="#e9572a"/></svg>